<svg id="f2d5e115-ce89-41b7-adf1-ac230b876c12" data-name="Layer 1" xmlns="http://www.w3.org/2000/svg" xmlns:xlink="http://www.w3.org/1999/xlink" width="1058.51918" height="680.13075" viewBox="0 0 1058.51918 680.13075"><defs><clipPath id="adae3612-a3ff-4770-8526-6de49ba4fbbb" transform="translate(-5.65735 -3.75437)"><circle cx="820.97175" cy="113.57417" r="24.19396" fill="none" stroke="#0b124b" stroke-miterlimit="10" stroke-width="2"/></clipPath></defs><path d="M832.01612,274.03167c-113.5382,36.051-234.3067,2.0759-393.1624-110.0823-158.8557-112.1581-390.8342-120.3361-292.7335,48.864,82.2689,141.8941-156.2641,111.1273-139.6283,256.2779,22.6904,197.9778,706.4894,368.2438,1019.9396-11.7045C1117.30472,347.23487,1040.84892,207.72247,832.01612,274.03167Z" transform="translate(-5.65735 -3.75437)" fill="#bbbdbf"/><path d="M151.39832,541.564h220.353l-11.1385-143.073a27.4088,27.4088,0,0,0-27.326-25.2814h-165.37a27.40873,27.40873,0,0,0-27.3259,29.5361Z" transform="translate(-5.65735 -3.75437)" fill="#b90049"/><path d="M165.39762,541.564h220.3531l-11.1385-143.073a27.4088,27.4088,0,0,0-27.326-25.2814H181.91612a27.40879,27.40879,0,0,0-27.3259,29.5361Z" transform="translate(-5.65735 -3.75437)" fill="#fff"/><path d="M956.61772,528.31057c-298.1064,254.0933-801.7868,154.9019-923.59,0Z" transform="translate(-5.65735 -3.75437)" fill="#0b124b"/><path d="M467.891,158.77787s12.4759-32.9618-19.5323-46.7459c-32.0082-13.7838-62.5727,4.1953-62.5727,4.1953s-40.3266-16.6245-56.4082,23.3389c-10.6003,26.3421-59.2495,28.8218-10.7141,89.3717-5.993,10.1471-90.3001,42.46-37.8087,107.6581,38.9549,4.442,107.7153,0,107.7153,0Z" transform="translate(-5.65735 -3.75437)" fill="#0b124b"/><path d="M433.615,299.02557s48.5026,7.9475,75.2353,53.4656c26.7329,45.5181,75.1411,133.1558,75.1411,133.1558l-20.2303,30.8566h-26.7328l-54.9107-62.1386S429.90812,337.31847,433.615,299.02557Z" transform="translate(-5.65735 -3.75437)" fill="#9bca3b"/><path d="M537.02832,516.50367l-54.9108-62.1384s-.9363-2.1004-2.5382-5.8025l23.3318-51.5328s21.1103,30.5518,14.6626,60.3569c-6.1729,28.5338,24.1904,24.1373,30.2723,59.1168Z" transform="translate(-5.65735 -3.75437)" fill="#0b124b"/><path d="M460.48642,308.33687s34.6363,44.8795,44.7514,99.4277c10.1151,54.5481-32.4687,49.4905-22.3757,112.3488-28.1999,7.9476-166.9217-6.5025-166.9217-6.5025l-23.8428-101.8738,45.6844-112.7115h95.833l24.0877,13.5789Z" transform="translate(-5.65735 -3.75437)" fill="#9bca3b"/><polygon points="419.658 298.522 442.701 320.186 437.063 346.587 450.142 385.456 451.025 452.004 448.34 501.186 442.701 520.664 409.927 512.746 389.554 449.154 366.874 364.326 369.404 344.65 348.773 332.842 348.789 298.522 419.658 298.522" fill="#fff"/><path d="M425.31492,306.83247s28.7403,120.0772,28.6825,198.1082c10.0574-21.6752,12.3633-146.6694,12.3633-146.6694l-18.002-10.8376,12.1277-5.1427s-17.2575-53.8236-38.9758-64.7343C421.56012,276.258,414.03052,294.20307,425.31492,306.83247Z" transform="translate(-5.65735 -3.75437)" fill="#9bca3b"/><path d="M461.418,460.23377c3.8706-43.8483,4.9427-101.9625,4.9427-101.9625l-18.002-10.8376,12.1277-5.1427a257.874,257.874,0,0,0-11.3435-28.2757" transform="translate(-5.65735 -3.75437)" fill="none" stroke="#0b124b" stroke-miterlimit="10" stroke-width="2"/><path d="M467.14212,190.43887l7.3128-.221.0015.0092c4.3684.2507,8.7961,5.5667,10.4533,13.0073,1.8937,8.5043-.549,16.5636-5.4562,18.0012a5.6315,5.6315,0,0,1-3.0694,0h-2.3838Z" transform="translate(-5.65735 -3.75437)" fill="#bbbdbf"/><ellipse cx="465.944" cy="206.40357" rx="13.20366" ry="22.59746" transform="translate(-35.65533 85.3982) rotate(-10.59068)" fill="#6d6e70"/><path d="M467.891,158.77787c9.9617,30.503,11.0436,118.4315-37.157,122.8577-3.4308,3.145-4.8215,11.443-5.3379,19.262-.566,8.5712-5.1025,19.5171-12.7191,21.4352-14.7676,3.7189-39.2917,3.5567-55.8931-29.5163,5.5513-20.4385,10.191-43.5093,9.8243-59.1253-4.1951-5.3938-5.993-39.5542-5.993-39.5542s20.1062,5.6571,18.8365-22.8383c-.6628-14.8752,6.1925-25.3657,24.3135-21.3529C425.483,154.75527,453.46492,114.60507,467.891,158.77787Z" transform="translate(-5.65735 -3.75437)" fill="#9c7862"/><path d="M434.906,183.57044a38.39991,38.39991,0,0,1-8.31116,1.88965,27.55808,27.55808,0,0,1-3.81994.23438c-.62427-.01124-1.25183-.06446-1.87561-.11329l-1.87061-.11718c-.6278-.05664-1.23987-.0503-1.87414-.1294-.63758-.08642-1.26807-.15332-1.90589-.21338a20.088,20.088,0,0,0-3.89831-.17285,21.15129,21.15129,0,0,0-7.56433,2.15527l-.01892.01026a.40407.40407,0,0,1-.48462-.63184,26.436,26.436,0,0,1,6.86938-5.34961c2.61157-1.38965,5.42285-2.90429,8.39539-3.333l2.21533-.28516c.73865-.0708,1.47449-.07959,2.21313-.08252a16.00906,16.00906,0,0,1,4.33985.74414,19.62222,19.62222,0,0,1,4.103,1.74561,14.58417,14.58417,0,0,1,3.69763,2.87646.47627.47627,0,0,1-.19129.76563Z" transform="translate(-5.65735 -3.75437)" fill="#0b124b"/><path d="M457.4502,182.37952a15.85,15.85,0,0,1,4.30029-3.60156,5.53493,5.53493,0,0,1,1.22608-.55224,8.66976,8.66976,0,0,1,1.26306-.2085,6.23787,6.23787,0,0,1,2.53186.22119,14.276,14.276,0,0,1,2.4259.93066c.77613.43018,1.53345.83692,2.25367,1.32325a19.695,19.695,0,0,1,3.89587,3.25683.52585.52585,0,0,1-.34094.8794l-.02954.00244a44.66394,44.66394,0,0,0-4.62415.5166c-1.45911.228-2.85608.67725-4.16492.8877a5.20235,5.20235,0,0,1-1.94372.03955,4.55335,4.55335,0,0,1-1.98682-.58545c-1.3844-.73047-2.87585-1.43067-4.53589-2.19239l-.06176-.02832a.57841.57841,0,0,1-.28467-.76709A.59587.59587,0,0,1,457.4502,182.37952Z" transform="translate(-5.65735 -3.75437)" fill="#0b124b"/><path d="M452.19042,192.45767s-5.9931,10.7875,0,20.3764c5.993,9.5889,2.3973,15.5819-8.3903,14.9826" transform="translate(-5.65735 -3.75437)" fill="none" stroke="#0b124b" stroke-miterlimit="10" stroke-width="2"/><path d="M453.46492,240.70027l-35.7586-4.9731S430.734,265.26867,453.46492,240.70027Z" transform="translate(-5.65735 -3.75437)" fill="#fff"/><path d="M460.586,208.386h0a3.78579,3.78579,0,0,0,3.7039-3.8663l-.0365-1.7046a3.78648,3.78648,0,0,0-3.8664-3.7041h0a3.78615,3.78615,0,0,0-3.7039,3.8668l.0366,1.7042A3.78586,3.78586,0,0,0,460.586,208.386Z" transform="translate(-5.65735 -3.75437)" fill="#0b124b"/><path d="M421.61022,209.26927h0a3.78572,3.78572,0,0,0,3.7039-3.8663l-.0365-1.7047a3.78649,3.78649,0,0,0-3.8665-3.704h0a3.7864,3.7864,0,0,0-3.7039,3.8668l.0368,1.7041A3.78586,3.78586,0,0,0,421.61022,209.26927Z" transform="translate(-5.65735 -3.75437)" fill="#0b124b"/><path d="M344.572,221.15907c-18.9173,3.8682-32.58-.7902-32.58-.7902l-2.5618,15.8465s16.4284,5.1255,38.8153-9.3972Z" transform="translate(-5.65735 -3.75437)" fill="#b90049"/><path d="M353.18322,214.85327c2.9587,13.2862,11.5722,22.2364,19.2386,19.9907s11.4827-14.8367,8.5241-28.1229c-2.9588-13.2862-11.5722-22.2363-19.2386-19.9906C354.04072,188.97607,350.22442,201.56717,353.18322,214.85327Z" transform="translate(-5.65735 -3.75437)" fill="#6d6e70"/><ellipse cx="362.33525" cy="211.80027" rx="12.32767" ry="21.09825" transform="translate(-38.41109 66.4448) rotate(-10.59026)" fill="#bbbdbf"/><path d="M385.786,116.22727s-45.1744,16.7936-30.1266,80.3925l-6.9563-2.0548S331.72522,131.40467,385.786,116.22727Z" transform="translate(-5.65735 -3.75437)" fill="#6d6e70"/><path d="M345.88522,194.58047l8.6589-.2617.0019.0109c5.1725.2968,10.4154,6.5914,12.3776,15.4018,2.2423,10.0698-.6501,19.6128-6.4606,21.315a6.66744,6.66744,0,0,1-3.6344,0h-2.8228Z" transform="translate(-5.65735 -3.75437)" fill="#6d6e70"/><path d="M338.54132,215.89507c2.2426,10.0697,8.7708,16.8532,14.5812,15.1512,5.8106-1.702,8.703-11.245,6.4605-21.3147-2.2424-10.0698-8.7706-16.8532-14.5812-15.1511C339.19142,196.28247,336.29892,205.82537,338.54132,215.89507Z" transform="translate(-5.65735 -3.75437)" fill="#fff"/><path d="M395.71822,249.83867a2.16049,2.16049,0,0,0,.8234-4.105c-27.4872-13.1941-51.8245-37.1451-52.0674-37.3856a2.15991,2.15991,0,1,0-3.0408,3.0683c.2473.2455,25.082,24.6966,53.2387,38.2119A2.15019,2.15019,0,0,0,395.71822,249.83867Z" transform="translate(-5.65735 -3.75437)" fill="#bbbdbf"/><path d="M389.71112,250.56417l6.5486,3.6471a5.38746,5.38746,0,0,0,7.3281-2.0853h0a5.38755,5.38755,0,0,0-2.0853-7.3282l-6.5486-3.6472a5.3874,5.3874,0,0,0-7.3281,2.0854h0A5.38749,5.38749,0,0,0,389.71112,250.56417Z" transform="translate(-5.65735 -3.75437)" fill="#bbbdbf"/><path d="M425.31492,302.27617s3.2639,34.3198-18.9741,40.7366c-34.4357,9.9362-61.7252-25.5487-49.5569-50.1963C370.04572,265.95437,425.31492,302.27617,425.31492,302.27617Z" transform="translate(-5.65735 -3.75437)" fill="#9c7862"/><path d="M742.42922,513.43607H571.25082a10.63659,10.63659,0,0,1-10.3252-13.1954l38.541-155.5638a10.6385,10.6385,0,0,1,10.3263-8.0809h171.1773a10.63808,10.63808,0,0,1,10.3253,13.1966l-38.5411,155.564A10.63758,10.63758,0,0,1,742.42922,513.43607Z" transform="translate(-5.65735 -3.75437)" fill="#fff"/><path d="M750.03062,513.43607H578.85222a10.6365,10.6365,0,0,1-10.3252-13.1954l38.5409-155.5638a10.63887,10.63887,0,0,1,10.3264-8.0809h171.1773a10.638,10.638,0,0,1,10.3252,13.1966l-38.541,155.564A10.6375,10.6375,0,0,1,750.03062,513.43607Z" transform="translate(-5.65735 -3.75437)" fill="#ededed"/><path d="M700.68192,432.67607c-4.52,8.9534-13.3159,13.6198-19.6453,10.4244-6.3297-3.1959-7.7964-13.0433-3.2762-21.9983,4.5212-8.9522,13.3162-13.6207,19.6454-10.4251C703.73612,413.873,705.20222,423.722,700.68192,432.67607Z" transform="translate(-5.65735 -3.75437)" fill="#ededed"/><path d="M435.12972,513.435v9.5912a6.36448,6.36448,0,0,0,6.3646,6.3645h305.1906a6.464,6.464,0,0,0,6.4641-6.464V513.435Z" transform="translate(-5.65735 -3.75437)" fill="#ededed"/><path d="M575.75952,513.435v9.5912a6.3645,6.3645,0,0,0,6.3647,6.3645h164.6614a6.36343,6.36343,0,0,0,6.3634-6.3635V513.435Z" transform="translate(-5.65735 -3.75437)" fill="#6d6e70"/><path d="M360.618,277.55667s44.0657,121.8976,54.966,238.9442c.0627.7225-66.5218-141.6296-66.5218-141.6296l16.9189-16.6-19.8049-1.445-8.3942-57.8007Z" transform="translate(-5.65735 -3.75437)" fill="#9bca3b"/><path d="M375.06172,502.05067s28.1311,3.6125,50.2532,0,47.41,23.8513,56.0801,37.5747c-5.78,6.4983-11.11,0-11.11,0s.3608,5.058-9.7986,2.8882c-3.6567,3.6101-10.4147,2.1737-23.2922-2.8882-12.8774-5.0617-11.9813-5.0532-30.8534,0-18.872,5.0534-18.4968-8.6744-40.3597-.0042C365.98112,539.62117,314.24642,485.43287,375.06172,502.05067Z" transform="translate(-5.65735 -3.75437)" fill="#9c7862"/><path d="M393.19572,469.09127c-19.3177-41.166-44.1335-94.22-44.1335-94.22l16.9189-16.6-19.8049-1.445-6.2277-42.8828" transform="translate(-5.65735 -3.75437)" fill="none" stroke="#0b124b" stroke-miterlimit="10" stroke-width="2"/><path d="M337.782,299.02557s-42.5067-4.0166-79.6423,48.4081c-26.5618,37.4973-97.5388,158.2295-55.6333,175.5698,41.9055,17.3401,163.4747,16.6177,163.4747,16.6177s-8.3842-28.9004,9.0806-37.5705c-19.3834-7.2251-100.3044-27.4554-100.3044-27.4554S342.28332,371.27647,337.782,299.02557Z" transform="translate(-5.65735 -3.75437)" fill="#9bca3b"/><path d="M873.871,464.07317s33.8754-68.8989,21.3139-74.572c-12.5616-5.6729-31.2824,75.6177-31.2824,75.6177s13.6151-59.166,0-61.4352-12.4031,65.8062-12.4031,65.8062,1.6245-80.5559-15.9616-89.0654c-17.5862-8.5094,7.3748,89.0654,7.3748,89.0654s-21.5572-70.9119-34.0377-65.8062c-12.4805,5.1056,30.6339,75.7829,30.6339,75.7829l27.7976,2.5038Z" transform="translate(-5.65735 -3.75437)" fill="#9bca3b"/><polygon points="815.241 525.162 876.034 525.162 883.768 460.502 807.507 460.502 815.241 525.162" fill="#b90049"/><polygon points="807.24 525.636 805.422 513.293 885.853 513.293 884.035 525.636 807.24 525.636" fill="#b90049"/><line x1="877.51867" y1="512.7493" x2="813.82167" y2="512.7493" fill="none" stroke="#0b124b" stroke-miterlimit="10" stroke-width="2"/><path d="M430.734,281.63557s-17.2639,2.7868-41.0734-15.3616" transform="translate(-5.65735 -3.75437)" fill="none" stroke="#0b124b" stroke-miterlimit="10" stroke-width="2"/><path d="M611.36332,74.97547H765.638a12.20415,12.20415,0,0,1,12.2041,12.2041v38.3805a12.20822,12.20822,0,0,0,12.2081,12.2081H611.36382a12.208,12.208,0,0,1-12.208-12.2081v-38.377A12.20754,12.20754,0,0,1,611.36332,74.97547Z" transform="translate(-5.65735 -3.75437)" fill="#fff"/><g clip-path="url(#adae3612-a3ff-4770-8526-6de49ba4fbbb)"><circle cx="815.3144" cy="109.8198" r="24.19396" fill="#fff"/><path d="M820.97142,127.31927c-7.1529,0-12.9723-.8397-12.9723-7.9934l1.66-12.0085a10.78228,10.78228,0,0,1,10.7693-10.7702h1.086a10.78254,10.78254,0,0,1,10.7702,10.7702l1.6599,12.0085C833.94452,126.47957,828.125,127.31927,820.97142,127.31927Z" transform="translate(-5.65735 -3.75437)" fill="#b90049"/><path d="M838.73312,140.67987v-2.2012a14.47932,14.47932,0,0,0-14.4793-14.4794h-6.564a14.4794,14.4794,0,0,0-14.4794,14.4794v2.2012Z" transform="translate(-5.65735 -3.75437)" fill="#0b124b"/><path d="M820.97172,131.40587h0a4.14989,4.14989,0,0,1-4.1498-4.1498v-3.32a4.14993,4.14993,0,0,1,4.1498-4.1497h0a4.14974,4.14974,0,0,1,4.1498,4.1497v3.32A4.1497,4.1497,0,0,1,820.97172,131.40587Z" transform="translate(-5.65735 -3.75437)" fill="#e0b28b"/><path d="M812.97882,108.55477v5.7917c0,5.3311,2.6619,9.6528,7.9929,9.6528,5.3313,0,7.9931-4.3217,7.9931-9.6528v-5.7917Z" transform="translate(-5.65735 -3.75437)" fill="#e0b28b"/></g><circle cx="815.3144" cy="109.8198" r="24.19396" fill="none" stroke="#0b124b" stroke-miterlimit="10" stroke-width="2"/><line x1="635.62907" y1="90.7507" x2="733.23817" y2="90.7507" fill="none" stroke="#0b124b" stroke-miterlimit="10" stroke-width="2"/><line x1="635.62907" y1="114.4842" x2="682.41427" y2="114.4842" fill="none" stroke="#0b124b" stroke-miterlimit="10" stroke-width="2"/><line x1="635.62907" y1="102.6175" x2="733.23817" y2="102.6175" fill="none" stroke="#0b124b" stroke-miterlimit="10" stroke-width="2"/><path d="M696.46612,3.75437H542.19142a12.20415,12.20415,0,0,0-12.2041,12.2041V42.459a12.20822,12.20822,0,0,1-12.2081,12.2081h178.6864a12.20808,12.20808,0,0,0,12.208-12.2081V15.962A12.20761,12.20761,0,0,0,696.46612,3.75437Z" transform="translate(-5.65735 -3.75437)" fill="#fff"/><line x1="660.88567" y1="19.5296" x2="563.27657" y2="19.5296" fill="none" stroke="#0b124b" stroke-miterlimit="10" stroke-width="2"/><line x1="600.81907" y1="31.3964" x2="563.27657" y2="31.3964" fill="none" stroke="#0b124b" stroke-miterlimit="10" stroke-width="2"/><path d="M759.39472,158.07257h-208.606a16.502,16.502,0,0,0-16.502,16.502v66.2031a16.50759,16.50759,0,0,1-16.5075,16.5074H759.394a16.50738,16.50738,0,0,0,16.5074-16.5074v-66.1984A16.5067,16.5067,0,0,0,759.39472,158.07257Z" transform="translate(-5.65735 -3.75437)" fill="#fff" stroke="#0b124b" stroke-miterlimit="10" stroke-width="2"/><rect x="581.39817" y="179.6201" width="131.878" height="7.6708" fill="#0b124b"/><rect x="581.39817" y="200.0891" width="131.878" height="7.6707" fill="#0b124b"/><rect x="581.39817" y="220.558" width="60.0575" height="7.6708" fill="#0b124b"/><polygon points="572.606 580.973 657.221 580.973 706.143 490.769 621.528 490.769 572.606 580.973" fill="#ededed"/><polygon points="580.167 580.973 664.782 580.973 713.704 490.769 629.089 490.769 580.167 580.973" fill="#9bca3b"/><polygon points="662.453 577.059 707.13 494.683 631.419 494.683 586.742 577.059 662.453 577.059" fill="#012731"/><polygon points="707.13 494.683 662.453 577.059 657.945 577.059 702.621 494.683 707.13 494.683" fill="#6d6e70"/><polygon points="695.984 580.973 644.647 523.347 668.734 523.347 725.547 580.973 695.984 580.973" fill="#6d6e70"/><path d="M649.33852,527.10157h26.1841a1.21806,1.21806,0,0,0,1.2181-1.218h0a1.21815,1.21815,0,0,0-1.2181-1.2181h-26.1841a1.21806,1.21806,0,0,0-1.218,1.2181h0A1.218,1.218,0,0,0,649.33852,527.10157Z" transform="translate(-5.65735 -3.75437)" fill="#fff"/><path d="M472.07962,609.539v11.6501a5.26854,5.26854,0,0,0,5.2684,5.2687H328.97712v-22.1873l.0002-.0003H477.348A5.26862,5.26862,0,0,0,472.07962,609.539Z" transform="translate(-5.65735 -3.75437)" fill="#fff"/><path d="M419.67542,621.18907V609.539a5.26864,5.26864,0,0,0-5.2685-5.2688h143.1025a5.26864,5.26864,0,0,1,5.2685,5.2688v11.6501a5.26856,5.26856,0,0,1-5.2685,5.2687H414.40692A5.26856,5.26856,0,0,0,419.67542,621.18907Z" transform="translate(-5.65735 -3.75437)" fill="#6d6e70"/><path d="M414.407,624.83777a3.65247,3.65247,0,0,0,3.6482-3.6487v-11.6502a3.65247,3.65247,0,0,0-3.6482-3.6487v-3.24h143.1025a6.89639,6.89639,0,0,1,6.8882,6.8887v11.6502a6.89632,6.89632,0,0,1-6.8882,6.8887H414.407Zm5.8404-18.9476a6.84566,6.84566,0,0,1,1.0478,3.6487v11.6502a6.8454,6.8454,0,0,1-1.0478,3.6487h137.2621a3.65247,3.65247,0,0,0,3.6482-3.6487v-11.6502a3.65247,3.65247,0,0,0-3.6482-3.6487Z" transform="translate(-5.65735 -3.75437)" fill="#6d6e70"/><rect x="319.16497" y="598.8958" width="89.5847" height="3.24" fill="#6d6e70"/><rect x="319.16497" y="621.0834" width="89.5847" height="3.24" fill="#6d6e70"/><path d="M483.95962,584.11137v11.6501a5.26871,5.26871,0,0,0,5.2685,5.2688H355.97722v-22.1874l.0003-.0003h133.2506A5.26871,5.26871,0,0,0,483.95962,584.11137Z" transform="translate(-5.65735 -3.75437)" fill="#fff"/><path d="M431.55552,595.76147v-11.6501a5.26871,5.26871,0,0,0-5.2685-5.2688h116.1023a5.26864,5.26864,0,0,1,5.2685,5.2688v11.6501a5.26864,5.26864,0,0,1-5.2685,5.2688H426.287A5.26871,5.26871,0,0,0,431.55552,595.76147Z" transform="translate(-5.65735 -3.75437)" fill="#bbbdbf"/><path d="M426.28712,599.41017a3.65253,3.65253,0,0,0,3.6482-3.6487v-11.6502a3.65253,3.65253,0,0,0-3.6482-3.6487v-3.24h116.1023a6.89632,6.89632,0,0,1,6.8882,6.8887v11.6502a6.89632,6.89632,0,0,1-6.8882,6.8887H426.28712Zm5.8404-18.9476a6.84566,6.84566,0,0,1,1.0478,3.6487v11.6502a6.84566,6.84566,0,0,1-1.0478,3.6487h110.2619a3.65247,3.65247,0,0,0,3.6482-3.6487v-11.6502a3.65247,3.65247,0,0,0-3.6482-3.6487Z" transform="translate(-5.65735 -3.75437)" fill="#bbbdbf"/><rect x="346.16517" y="573.4682" width="74.4646" height="3.24" fill="#bbbdbf"/><rect x="346.16517" y="595.6558" width="74.4646" height="3.24" fill="#bbbdbf"/><path d="M532.99842,128.71967s-146.3942-134.5985-262.8052-36.2146" transform="translate(-5.65735 -3.75437)" fill="none" stroke="#0b124b" stroke-miterlimit="10" stroke-width="2" stroke-dasharray="6 9"/><path d="M150.83462,221.44877s-33.5907,56.4044-94.5881,60.3407-56.3199-62.1064,0-41.3206c56.32,20.7858,55.5364,153.8624,12.8175,216.2979" transform="translate(-5.65735 -3.75437)" fill="none" stroke="#0b124b" stroke-miterlimit="10" stroke-width="2" stroke-dasharray="6 9"/><path d="M791.61282,627.91217s186.9838,27.922,233.3076-120.0578c29.4239-93.9933-78.5704-165.9627-78.5704-165.9627" transform="translate(-5.65735 -3.75437)" fill="none" stroke="#0b124b" stroke-miterlimit="10" stroke-width="2" stroke-dasharray="6 9"/></svg>